<svg xmlns="http://www.w3.org/2000/svg" viewBox="0 0 100 100">
  <!-- Gerado por tool/gerar_marca.py; não editar à mão. -->
  <title>SLAP Mobile — símbolo</title>
  <path fill="#8FCFC2" d="M22 0H78A22 22 0 0 1 100 22V78A22 22 0 0 1 78 100H22A22 22 0 0 1 0 78V22A22 22 0 0 1 22 0Z"/>
  <path fill="#0B2A25" d="M25.556 25.556A3.056 3.056 0 0 1 28.611 28.611V71.389A3.056 3.056 0 0 1 25.556 74.444A3.056 3.056 0 0 1 22.5 71.389V28.611A3.056 3.056 0 0 1 25.556 25.556Z"/>
  <path fill="#0B2A25" d="M37.778 25.556A3.056 3.056 0 0 1 40.833 28.611V71.389A3.056 3.056 0 0 1 37.778 74.444A3.056 3.056 0 0 1 34.722 71.389V28.611A3.056 3.056 0 0 1 37.778 25.556Z"/>
  <path fill="#0B2A25" d="M50 25.556A3.056 3.056 0 0 1 53.056 28.611V71.389A3.056 3.056 0 0 1 50 74.444A3.056 3.056 0 0 1 46.944 71.389V28.611A3.056 3.056 0 0 1 50 25.556Z"/>
  <path fill="#0B2A25" d="M62.222 25.556A3.056 3.056 0 0 1 65.278 28.611V59.167A3.056 3.056 0 0 1 62.222 62.222A3.056 3.056 0 0 1 59.167 59.167V28.611A3.056 3.056 0 0 1 62.222 25.556Z"/>
  <path fill="#0B2A25" d="M74.444 25.556A3.056 3.056 0 0 1 77.5 28.611V71.389A3.056 3.056 0 0 1 74.444 74.444A3.056 3.056 0 0 1 71.389 71.389V28.611A3.056 3.056 0 0 1 74.444 25.556Z"/>
</svg>
